<svg xmlns="http://www.w3.org/2000/svg" viewBox="0 0 19.84 19.84"><path d="M9.43 2.85V.71m5.08 1.35l-1.07 1.85m4.45 1.66l-1.86 1.07M5.1 1.86l1.07 1.85M3.24 6.64L1.39 5.57m14.22 4.51a5.9 5.9 0 00-1.75-4.2c-1.08-1.08-2.57-1.74-4.22-1.74S6.5 4.8 5.42 5.88s-1.75 2.56-1.75 4.2m.47 6.22l3.32-.88.87 3.36m1.59-7.6l-4.5 7.77m-.35-7.8l-2.44 2.44m7.29-2.41l-8.9-.06m13.76.09l2.41 2.47m-7.27-2.5l8.9.06m-3.19 5.13l-3.31-.92-.91 3.35m-1.49-7.62l4.4 7.83" fill="none" stroke="#000" stroke-width=".5" stroke-linejoin="bevel" stroke-miterlimit="10"/></svg>