<svg xmlns="http://www.w3.org/2000/svg" viewBox="0 0 19.84 19.84"><path d="M8.72 17.68c-4.29 0-7.76-3.47-7.76-7.76s3.47-7.76 7.76-7.76 7.76 3.47 7.76 7.76" fill="none" stroke="#000" stroke-width=".5" stroke-miterlimit="10"/><path d="M18.98 5.56c-2.38 1.83-2.33 4.47-2.33 4.47S14.87 7.5 12.1 7.74" fill="none" stroke="#000" stroke-width=".5" stroke-linejoin="bevel" stroke-miterlimit="10"/><path d="M14.45 15.21l-.55-1.7c-.12-.38-.2-.73-.29-1.07h-.01c-.08.34-.16.71-.28 1.07l-.54 1.7h1.67zm-1.82.6l-.57 1.85h-.74l1.88-5.89h.85l1.88 5.89h-.76l-.59-1.85h-1.95z"/></svg>