<svg width="65" height="64" viewBox="0 0 65 64" fill="none" xmlns="http://www.w3.org/2000/svg"><path d="M52.29 15l-11.096 2.903L38.29 6.742M33 32L48.032 6.194M33 32l29.71.194M33 32l-29.71-.226M33 32L18.323 6m38.935 34.29l-8.064-8.225 8.16-8.097m-48.709 16l8.162-8.097-8.065-8.194m5.194-8.935L25 17.806l3.032-11.129M13.71 49.003L24.806 46.1l2.904 11.161m-9.742.549L33 32.003l14.678 26m4.387-8.742L41 46.197l-3.032 11.129" stroke="#000" stroke-width="2" stroke-miterlimit="10" stroke-linejoin="bevel"/></svg>