<svg width="88" height="88" viewBox="0 0 88 88" fill="none" xmlns="http://www.w3.org/2000/svg"><path d="M80.637 44c0-2.617-.222-5.234-.266-7.85-.045-2.352-.266-4.658.133-7.009.355-2.262 1.197-4.213 2.04-6.298.444-1.109 1.42-3.416-.222-4.037-.975-.354-2.084.178-3.016.488-.887.31-1.818.621-2.705.976-1.952.754-3.948 1.065-6.033 1.154-4.48.221-8.915-.799-13.35-1.154a439.17 439.17 0 00-13.174-1.02c-4.435.222-8.826.621-13.218.976-4.435.4-8.915 1.375-13.35 1.153-2.085-.044-4.081-.355-6.033-1.109a48.467 48.467 0 00-2.705-.976c-.932-.31-2.04-.842-3.016-.443-1.642.576-.666 2.883-.267 3.992.843 2.084 1.73 4.036 2.085 6.298.355 2.351.133 4.657.089 7.008-.044 2.617-.266 5.234-.266 7.851s.221 5.234.266 7.85c.044 2.352.266 4.658-.133 7.009-.355 2.262-1.198 4.214-2.04 6.298-.444 1.11-1.42 3.416.221 4.037.976.355 2.085-.178 3.016-.488.887-.31 1.819-.621 2.706-.976 1.952-.754 3.948-1.065 6.032-1.153 4.48-.222 8.916.798 13.351 1.153 4.391.4 8.782.754 13.174 1.02 4.39-.222 8.782-.62 13.173-1.02 4.435-.4 8.915-1.375 13.35-1.153 2.085.088 4.081.399 6.033 1.153.887.355 1.819.665 2.706.976.931.31 1.995.843 3.016.488 1.64-.621.665-2.928.222-4.037-.843-2.084-1.686-4.036-2.04-6.298-.356-2.35-.178-4.657-.134-7.008.133-2.617.355-5.234.355-7.85z" stroke="#000" stroke-width="2" stroke-miterlimit="10" stroke-linecap="round" stroke-linejoin="round"/></svg>