<svg xmlns="http://www.w3.org/2000/svg" viewBox="0 0 19.84 19.84"><path d="M19.13 15.57v-.49c-.05-.01-.1-.01-.14-.01-.38.01-.67.18-.82.49v-.48h-.48v2.74h.49v-1.43c0-.6.23-.84.68-.84.08 0 .17.01.27.02m-4.26.64c.04-.55.44-.77.87-.77.52 0 .82.39.83.77h-1.7zm0 .4h2.23c.07-.87-.47-1.57-1.35-1.57-.79 0-1.4.55-1.4 1.42 0 .81.51 1.43 1.42 1.43.7 0 1.16-.39 1.3-.86h-.51c-.12.27-.36.45-.79.45-.44 0-.88-.28-.9-.87m-1.94-2.21v.69h-.46v.37h.46v1.68c0 .57.13.69.68.69h.36v-.39h-.25c-.28 0-.3-.07-.3-.36v-1.62h.55v-.37h-.55v-.69h-.49zm-.63 1.17v-.49c-.05-.01-.1-.01-.14-.01-.38.01-.67.18-.82.49v-.48h-.48v2.74h.49v-1.43c0-.6.23-.84.68-.84.07 0 .16.01.27.02m-4.26.64c.04-.55.44-.77.87-.77.52 0 .82.39.83.77h-1.7zm-.01.4h2.23c.06-.87-.47-1.57-1.35-1.57-.79 0-1.4.55-1.4 1.42 0 .81.51 1.43 1.42 1.43.7 0 1.16-.39 1.3-.86h-.52c-.12.27-.36.45-.79.45-.43 0-.87-.28-.89-.87m-1.98.57l-.79-2.1h-.54l1.09 2.74h.44l1.09-2.74h-.5l-.79 2.1zM2.49 15.5v-.41H2v2.74h.49v-1.49c0-.59.29-.9.76-.9.56 0 .63.37.63.79v1.59h.49v-1.73c0-.63-.25-1.05-.95-1.05-.48 0-.76.2-.93.46m-1.29-.41H.71v2.74h.49v-2.74zm0-.96H.71v.56h.49v-.56z"/><path d="M18.91 7.53l-1.51 2.83c-1.78 3.33-4.18 3.33-5.96 0L9.92 7.53m-8.99 0L2.44 4.7c1.78-3.33 4.18-3.33 5.96 0l1.51 2.83" fill="none" stroke="#000" stroke-width=".5" stroke-linejoin="bevel" stroke-miterlimit="10"/></svg>