<svg width="88" height="88" viewBox="0 0 88 88" fill="none" xmlns="http://www.w3.org/2000/svg"><path d="M70.524 17.564l-15.258 3.992L51.274 6.21M44 40.94L64.67 5.455M44 40.94l40.85.266M44 40.94l-40.85-.31m40.85.31L23.82 5.19m53.536 47.15l-11.09-11.313 11.222-11.133m-66.976 22l11.222-11.133-11.089-11.266m7.141-12.287L33 21.423l4.17-15.302M44 44.443c-1.863 10.069-13.484 14.15-13.484 24.617 0 7.053 6.299 13.262 13.44 13.262 7.185 0 13.44-6.165 13.44-13.262C57.483 58.592 45.862 54.512 44 44.443z" stroke="#000" stroke-width="2" stroke-miterlimit="10" stroke-linejoin="bevel"/></svg>