<svg xmlns="http://www.w3.org/2000/svg" viewBox="0 0 19.84 19.84"><path d="M15.56 3.46l-3.25.85-.85-3.26M9.92 8.42l4.4-7.54m.34 7.58l2.39-2.37M9.92 8.42l8.7.06M5.18 8.39L2.82 6m7.1 2.42l-8.7-.06m3.12-4.97l3.23.89.89-3.25m1.46 7.39L5.62.83m4.3 11.16h0c-.34 1.83-2.46 2.58-2.46 4.48 0 1.28 1.15 2.41 2.46 2.41s2.46-1.13 2.46-2.41c0-1.9-2.12-2.65-2.46-4.48zm4.74-2.87h0c-.28 1.53-2.05 2.15-2.05 3.74 0 1.07.96 2.01 2.05 2.01 1.09 0 2.05-.94 2.05-2.01 0-1.59-1.76-2.21-2.05-3.74zm-9.48 0h0c-.29 1.53-2.05 2.15-2.05 3.74 0 1.07.96 2.01 2.05 2.01 1.09 0 2.05-.94 2.05-2.01-.01-1.59-1.77-2.21-2.05-3.74z" fill="none" stroke="#1d1d1b" stroke-width=".5" stroke-linejoin="bevel" stroke-miterlimit="10"/></svg>