<svg width="65" height="64" viewBox="0 0 65 64" fill="none" xmlns="http://www.w3.org/2000/svg"><g clip-path="url(#clip0)"><rect x="1.5" y="9" width="62" height="25" rx="4" stroke="#000" stroke-width="2"/><path d="M6.5 24h52m-47 5h42" stroke="#000" stroke-width="2"/><path d="M17.5 40.08a1 1 0 100-2 1 1 0 000 2zm-5.275 14.125a1 1 0 100-2 1 1 0 000 2zm39.527-1a1 1 0 102 0 1 1 0 00-2 0zM9.23 50.56a1 1 0 100-2 1 1 0 000 2zm45.517-1a1 1 0 102 0 1 1 0 00-2 0zM6.906 46.447a1 1 0 100-2 1 1 0 000 2zm50.166-1a1 1 0 102 0 1 1 0 00-2 0zM5.5 41.706a1 1 0 100-2 1 1 0 000 2zm52.977-1a1 1 0 102 0 1 1 0 00-2 0zm-10.979-.626a1 1 0 110-2 1 1 0 010 2zm-26.998 3a1 1 0 11-2 0 1 1 0 012 0zm-4.71 14.276a1 1 0 100-2 1 1 0 000 2zm32.398-1a1 1 0 102 0 1 1 0 00-2 0zm-2.69-12.276a1 1 0 110-2 1 1 0 010 2zm-22.371 2.142a1 1 0 11-2 0 1 1 0 012 0zm-3 13.72a1 1 0 100-2 1 1 0 000 2zm23.723-1a1 1 0 102 0 1 1 0 00-2 0zm-.979-11.72a1 1 0 110-2 1 1 0 010 2zM26.589 48.56a1 1 0 11-2 0 1 1 0 012 0zm-1.581 13.382a1 1 0 100-2 1 1 0 000 2zm13.962-1a1 1 0 102 0 1 1 0 00-2 0zm.44-11.382a1 1 0 110-2 1 1 0 010 2zm-8.462.313a1 1 0 11-2 0 1 1 0 012 0zm-1 13.069a1 1 0 100-2 1 1 0 000 2zm4.082-1a1 1 0 102 0 1 1 0 00-2 0zm1-11.069a1 1 0 110-2 1 1 0 010 2z" fill="#000"/></g><defs><clipPath id="clip0"><path fill="#fff" d="M.5 0h64v64H.5z"/></clipPath></defs></svg>