<svg xmlns="http://www.w3.org/2000/svg" viewBox="0 0 19.84 19.84"><path d="M15.9 4.36l-3.44.9-.9-3.46M9.92 9.63l4.66-8m.36 8.03l2.53-2.51M9.92 9.63l9.21.06M4.9 9.59L2.4 7.05m7.52 2.58L.71 9.56m3.3-5.28l3.43.95.94-3.45m1.54 7.85L5.37 1.57m4.55 8.85h0" fill="none" stroke="#1d1d1b" stroke-width=".5" stroke-linejoin="bevel" stroke-miterlimit="10"/><path d="M7.71 11.64c-.67 0-1.21.55-1.21 1.22 0 .67.54 1.22 1.21 1.22.68 0 1.23-.55 1.23-1.22 0-.69-.54-1.22-1.23-1.22zm0 2.03c-.42 0-.76-.36-.76-.81 0-.46.33-.81.76-.81.45 0 .79.35.79.81 0 .45-.35.81-.79.81zM3 15.43h2.66V16H3zm9.77-3.79c-1.78 0-2.93 1.28-2.93 3.27 0 2 1.12 3.29 2.86 3.29 1.4 0 2.4-.74 2.7-2h-.69c-.25.91-.96 1.42-1.96 1.42-1.32 0-2.18-1.07-2.18-2.72 0-1.64.84-2.69 2.15-2.69.98 0 1.7.53 1.95 1.42h.69c-.29-1.23-1.28-1.99-2.59-1.99z" fill="#1d1d1b"/></svg>