<svg width="88" height="88" viewBox="0 0 88 88" fill="none" xmlns="http://www.w3.org/2000/svg"><path d="M44 44c10.956 0 19.87-8.871 19.87-19.871 0-11-8.87-19.871-19.87-19.871V44zm0 0c0-10.956-8.871-19.871-19.871-19.871-10.956 0-19.871 8.915-19.871 19.87H44zm0 0c-10.956 0-19.871 8.87-19.871 19.87 0 11 8.915 19.872 19.87 19.872V44zm0 0c0 10.955 8.87 19.87 19.87 19.87 11 0 19.872-8.87 19.872-19.87H44z" stroke="#000" stroke-width="2" stroke-miterlimit="10"/><path d="M69.992 57.883H56.375v9.847h13.617v-9.847z" fill="#fff"/><path d="M59.79 76.734l-2.218 7.097h-2.838l7.23-22.621h3.282l7.23 22.62h-2.928l-2.262-7.096H59.79zm6.964-2.262l-2.085-6.52c-.488-1.464-.798-2.839-1.109-4.125h-.044c-.31 1.286-.621 2.706-1.064 4.08l-2.085 6.565h6.387z" fill="#000"/></svg>