<svg width="88" height="88" viewBox="0 0 88 88" fill="none" xmlns="http://www.w3.org/2000/svg"><path d="M57.839 57.173l26.258-26.302m-26.258 0l26.258 26.302-26.258-26.302zM44.266 44V13.306c-.088-.665-.399-1.153-1.02-1.419-.577-.222-1.109-.177-1.641.266-1.065.887-18.452 15.658-20.448 17.343-.62.532-1.33.798-2.217.798-4.525-.044-9.049 0-13.573 0h-.621c-.177 0-.31.089-.31.355v24.573c0 1.153-.09 1.02 1.02 1.02h13.838c.71 0 1.331.222 1.819.71.843.798 20.27 18.584 20.758 19.072.266.222.532.266.843.222.576-.089 1.42-.71 1.464-1.508.088-.266.088-30.738.088-30.738z" stroke="#000" stroke-width="2" stroke-miterlimit="10"/></svg>