<svg xmlns="http://www.w3.org/2000/svg" xmlns:xlink="http://www.w3.org/1999/xlink"><defs><style>.a{fill:#000;fill-rule:evenodd;}</style><style>.a{fill:#fff;fill-rule:evenodd;}</style>
<clipPath id="clip0">
<rect x="0.5" width="64" height="64" fill="white"/>
</clipPath>
</defs><symbol id="anti-mold" viewBox="0 0 89 88">
<path d="M15.891 39.1211C13.8507 29.4074 3.20557 26.0807 3.20557 26.0807C3.20557 26.0807 12.4314 23.4195 16.2902 13.3953" stroke="black" stroke-width="2" stroke-miterlimit="10" stroke-linejoin="bevel"/>
<path d="M5.5 26.2583H15.6251C28.1332 26.2583 38.2017 36.3268 38.2017 48.7906V75.0043M4.00415 59.8793H85.7058M4.00415 51.2744H85.7058" stroke="black" stroke-width="2" stroke-miterlimit="10" stroke-linejoin="round"/>
<path d="M72.7097 13.3508C76.5686 23.4194 85.7944 26.0363 85.7944 26.0363C85.7944 26.0363 75.1493 29.4073 73.1089 39.0766" stroke="black" stroke-width="2" stroke-miterlimit="10" stroke-linejoin="bevel"/>
<path d="M83.5 26.2583H73.3749C60.9112 26.2583 50.7982 36.3712 50.7982 48.8349V75.0486" stroke="black" stroke-width="2" stroke-miterlimit="10" stroke-linejoin="round"/>
</symbol><symbol id="auto-restart" viewBox="0 0 19.84 19.84">
<style type="text/css">
	.st0{fill:none;stroke:#000000;stroke-width:0.5;stroke-miterlimit:10;}
	.st1{fill:none;stroke:#000000;stroke-width:0.5;stroke-linejoin:bevel;stroke-miterlimit:10;}
</style>
<g>
	<g>
		<path class="st0" d="M8.72,17.68c-4.29,0-7.76-3.47-7.76-7.76s3.47-7.76,7.76-7.76s7.76,3.47,7.76,7.76"/>
	</g>
	<g>
		<path class="st1" d="M18.98,5.56c-2.38,1.83-2.33,4.47-2.33,4.47S14.87,7.5,12.1,7.74"/>
	</g>
	<g>
		<path d="M14.45,15.21l-0.55-1.7c-0.12-0.38-0.2-0.73-0.29-1.07H13.6c-0.08,0.34-0.16,0.71-0.28,1.07l-0.54,1.7H14.45z
			 M12.63,15.81l-0.57,1.85h-0.74l1.88-5.89h0.85l1.88,5.89h-0.76l-0.59-1.85C14.58,15.81,12.63,15.81,12.63,15.81z"/>
	</g>
</g>
</symbol><symbol id="automatic" viewBox="0 0 19.84 19.84">
<style type="text/css">
	.st0{fill:none;stroke:#000000;stroke-width:0.5;stroke-linejoin:bevel;stroke-miterlimit:10;}
</style>
<g>
	<g>
		<path class="st0" d="M9.43,2.85V0.71 M14.51,2.06l-1.07,1.85 M17.89,5.57l-1.86,1.07 M5.1,1.86l1.07,1.85 M3.24,6.64L1.39,5.57
			 M15.61,10.08c0-1.64-0.67-3.13-1.75-4.2c-1.08-1.08-2.57-1.74-4.22-1.74S6.5,4.8,5.42,5.88s-1.75,2.56-1.75,4.2"/>
	</g>
	<g>
		<path class="st0" d="M4.14,16.3l3.32-0.88l0.87,3.36 M9.92,11.18l-4.5,7.77 M5.07,11.15l-2.44,2.44 M9.92,11.18l-8.9-0.06
			 M14.78,11.21l2.41,2.47 M9.92,11.18l8.9,0.06 M15.63,16.37l-3.31-0.92l-0.91,3.35 M9.92,11.18l4.4,7.83"/>
	</g>
</g>
</symbol><symbol id="cold" viewBox="0 0 65 64">
<path d="M52.2904 15L41.1936 17.9032L38.2904 6.74194M33.0001 32L48.0323 6.19355M33.0001 32L62.7098 32.1935M33.0001 32L3.29041 31.7742M33.0001 32L18.3227 6M57.2582 40.2903L49.1936 32.0645L57.3549 23.9677M8.64524 39.9677L16.8065 31.871L8.74202 23.6774M13.9356 14.7419L25.0001 17.8064L28.0323 6.67742" stroke="black" stroke-width="2" stroke-miterlimit="10" stroke-linejoin="bevel"/>
<path d="M13.7097 49.0032L24.8065 46.1L27.7097 57.2612M17.9678 57.8096L33.0001 32.0032L47.6775 58.0032M52.0646 49.2612L41.0001 46.1967L37.9678 57.3258" stroke="black" stroke-width="2" stroke-miterlimit="10" stroke-linejoin="bevel"/>
</symbol><symbol id="comfort-sleep" viewBox="0 0 88 88">
<path d="M80.6369 44.0001C80.6369 41.3832 80.4152 38.7662 80.3708 36.1493C80.3264 33.7985 80.1047 31.492 80.5039 29.1412C80.8587 26.8791 81.7014 24.9275 82.5442 22.8428C82.9877 21.734 83.9635 19.4275 82.3224 18.8065C81.3466 18.4517 80.2377 18.984 79.3063 19.2945C78.4192 19.6049 77.4877 19.9154 76.6006 20.2703C74.649 21.0243 72.6531 21.3348 70.5684 21.4235C66.0885 21.6453 61.6531 20.6251 57.2176 20.2703C52.8264 19.8711 48.4353 19.5162 44.0442 19.2501C39.6087 19.4719 35.2176 19.8711 30.8264 20.2259C26.391 20.6251 21.9111 21.6009 17.4756 21.3791C15.391 21.3348 13.395 21.0243 11.4434 20.2703C10.5563 19.9154 9.66918 19.6049 8.73773 19.2945C7.80628 18.984 6.69741 18.4517 5.7216 18.8509C4.08047 19.4275 5.05628 21.734 5.45547 22.8428C6.29821 24.9275 7.18531 26.8791 7.54015 29.1412C7.89499 31.492 7.67321 33.7985 7.62886 36.1493C7.5845 38.7662 7.36273 41.3832 7.36273 44.0001C7.36273 46.617 7.5845 49.234 7.62886 51.8509C7.67321 54.2017 7.89499 56.5082 7.49579 58.859C7.14096 61.1211 6.29821 63.0727 5.45547 65.1574C5.01192 66.2662 4.03612 68.5727 5.67725 69.1936C6.65305 69.5485 7.76192 69.0162 8.69337 68.7057C9.58047 68.3953 10.5119 68.0848 11.399 67.7299C13.3506 66.9759 15.3466 66.6654 17.4313 66.5767C21.9111 66.3549 26.3466 67.3751 30.7821 67.7299C35.1732 68.1291 39.5643 68.484 43.9555 68.7501C48.3466 68.5283 52.7377 68.1291 57.1289 67.7299C61.5643 67.3307 66.0442 66.3549 70.4797 66.5767C72.5643 66.6654 74.5603 66.9759 76.5119 67.7299C77.399 68.0848 78.3305 68.3953 79.2176 68.7057C80.149 69.0162 81.2135 69.5485 82.2337 69.1936C83.8748 68.5727 82.899 66.2662 82.4555 65.1574C81.6127 63.0727 80.77 61.1211 80.4151 58.859C80.0603 56.5082 80.2377 54.2017 80.2821 51.8509C80.4152 49.234 80.6369 46.617 80.6369 44.0001Z" stroke="black" stroke-width="2" stroke-miterlimit="10" stroke-linecap="round" stroke-linejoin="round"/>
</symbol><symbol id="corrosion" viewBox="0 0 19.84 19.84">
<style type="text/css">
	.st0{fill:none;stroke:#1D1D1B;stroke-width:0.5;stroke-linecap:round;stroke-linejoin:round;stroke-miterlimit:10;}
	.st1{fill:none;stroke:#1D1D1B;stroke-width:0.5;stroke-linejoin:round;stroke-miterlimit:10;}
	.st2{fill:none;stroke:#1D1D1B;stroke-width:0.5;stroke-miterlimit:10;}
</style>
<g>
	<path class="st0" d="M18.38,6.36l-1.12-3.18L14,4.28 M13.23,6.36L12.1,3.18l-3.26,1.1"/>
	<path class="st1" d="M7.46,8.48l3.21,6.95l6.6-12.31 M2.27,8.48l3.21,6.95l6.6-12.31"/>
	<line class="st2" x1="0.71" y1="15.43" x2="19.13" y2="15.43"/>
</g>
</symbol><symbol id="defrost" viewBox="0 0 88 88">
<path d="M70.5243 17.5642L55.2662 21.5561L51.2743 6.20937M44.0001 40.9392L64.6695 5.45534M44.0001 40.9392L84.8509 41.2053M44.0001 40.9392L3.14929 40.6287M44.0001 40.9392L23.8186 5.18921M77.3549 52.3384L66.2662 41.0279L77.488 29.8948M10.5122 51.8948L21.734 40.7618L10.6453 29.4957M17.7864 17.2094L33.0001 21.4231L37.1695 6.12066M44.0001 44.4432C42.1372 54.5118 30.5162 58.5924 30.5162 69.0602C30.5162 76.1126 36.8146 82.3223 43.9557 82.3223C51.1412 82.3223 57.3953 76.1569 57.3953 69.0602C57.484 58.5924 45.863 54.5118 44.0001 44.4432Z" stroke="black" stroke-width="2" stroke-miterlimit="10" stroke-linejoin="bevel"/>
</symbol><symbol id="diagnostic" viewBox="0 0 88 88">
<path d="M36.9475 53.3586L14.637 81.1247L10.9556 77.1328L32.4677 49.4553M77.3991 31.1368C77.3991 45.5521 65.6007 57.2174 51.008 57.2174C36.4152 57.2174 24.6169 45.5521 24.6169 31.1368C24.6169 16.7215 36.4152 5.05615 51.008 5.05615C65.6007 5.05615 77.3991 16.7215 77.3991 31.1368Z" stroke="#1D1D1B" stroke-width="2" stroke-miterlimit="10"/>
<path d="M69.8143 31.8911C69.8143 41.7379 61.7417 49.7218 51.7618 49.7218" stroke="#1D1D1B" stroke-width="2" stroke-miterlimit="10"/>
</symbol><symbol id="dry" viewBox="0 0 19.84 19.84">
<style type="text/css">
	.st0{fill:none;stroke:#000000;stroke-width:0.5;stroke-miterlimit:10;}
</style>
<g>
	<g>
		<path class="st0" d="M17.53,11.69c0,4.19-3.41,7.19-7.61,7.19s-7.61-2.99-7.61-7.19c0-5.21,5.73-7.88,7.61-10.55
			C11.74,3.82,17.53,6.48,17.53,11.69z"/>
	</g>
</g>
</symbol><symbol id="eco" viewBox="0 0 89 88">
<path d="M5.20156 84.8065C4.31447 71.2783 9.32656 56.3307 20.0604 44.2219C31.6814 31.0928 47.3387 24.3065 61.7983 24.6614M61.887 58.7702C35.8951 76.8227 8.66124 62.0969 8.66124 62.0969C8.66124 62.0969 4.49189 31.3146 30.4395 13.2178C56.4314 -4.83459 83.6209 9.89122 83.6209 9.89122C83.6209 9.89122 87.8346 40.6735 61.887 58.7702Z" stroke="black" stroke-width="2" stroke-miterlimit="10"/>
</symbol><symbol id="efficiency" viewBox="0 0 150 58">
<path d="M55.5315 38.9998L64.4635 19.2598H66.5355L75.4675 38.9998H73.0875L70.7915 33.8198H60.1235L57.7995 38.9998H55.5315ZM60.9915 31.8318H69.9235L65.4715 21.8358L60.9915 31.8318Z" fill="black"/>
<path fill-rule="evenodd" clip-rule="evenodd" d="M121.575 1H1V57H121.575L148.61 29L121.575 1ZM122 0H0V58H122L150 29L122 0Z" fill="black"/>
</symbol><symbol id="filter" viewBox="0 0 64 64">
<path d="M31 44H58M48.2581 32.0571H57.996M6 44H23M6.00409 32.0571H40.7218M6 20H16.5M24 20H58" stroke="black" stroke-width="2" stroke-miterlimit="10" stroke-linejoin="bevel"/>
<circle cx="27" cy="44" r="4" stroke="black" stroke-width="2"/>
<circle cx="20" cy="20" r="4" stroke="black" stroke-width="2"/>
<circle cx="44" cy="32" r="4" stroke="black" stroke-width="2"/>
</symbol><symbol id="flow" viewBox="0 0 64 64">
<rect x="1" y="9" width="62" height="25" rx="4" stroke="black" stroke-width="2"/>
<path d="M6 24H58" stroke="black" stroke-width="2"/>
<path d="M29 34.5V52" stroke="black" stroke-width="2"/>
<path d="M35 34.5V52" stroke="black" stroke-width="2"/>
<path d="M11 29H53" stroke="black" stroke-width="2"/>
<path d="M15 51V51.5C15 53.9853 17.0147 56 19.5 56V56C21.9853 56 24 53.9853 24 51.5V38" stroke="black" stroke-width="2"/>
<path d="M49 51V51.5C49 53.9853 46.9853 56 44.5 56V56C42.0147 56 40 53.9853 40 51.5V38" stroke="black" stroke-width="2"/>
</symbol><symbol id="horizontal-swing" viewBox="0 0 88 88">
<path d="M20.4033 71.6773C16.1452 61.387 3.68152 59.8789 3.68152 59.8789C3.68152 59.8789 13.3065 55.0442 15.4799 43.1128M4.3912 59.6128C14.0162 59.4797 24.3065 55.0886 32.2904 46.7499C40.9396 37.7458 44 27 43.8226 16.012C44 26.5 47.0606 37.7015 55.7097 46.7055C63.6936 55.0442 73.9839 59.4353 83.6089 59.5684M72.5202 43.1128C74.738 55.0442 84.363 59.8789 84.363 59.8789C84.363 59.8789 71.8993 61.387 67.6412 71.6773" stroke="black" stroke-width="2" stroke-miterlimit="10" stroke-linejoin="bevel"/>
</symbol><symbol id="icon_down_black" viewBox="0 0 25.018 13.509"><path class="a" d="M13,12.256,24.509.745l1,1L13,14.254.491,1.746l1-1Z" transform="translate(-0.491 -0.745)"/></symbol><symbol id="icon_down_white" viewBox="0 0 25.018 13.509"><path class="a" d="M13,12.256,24.509.745l1,1L13,14.254.491,1.746l1-1Z" transform="translate(-0.491 -0.745)"/></symbol><symbol id="intelligent-defrost" viewBox="0 0 19.84 19.84">
<style type="text/css">
	.st0{fill:none;stroke:#000000;stroke-width:0.5;stroke-linejoin:bevel;stroke-miterlimit:10;}
</style>
<g>
	<g>
		<path class="st0" d="M15.9,3.96l-3.44,0.9l-0.9-3.46 M9.92,9.23l4.66-8 M17.44,11.8l-2.5-2.55l2.53-2.51 M9.92,9.23l9.21,0.06
			 M2.37,11.7L4.9,9.19L2.4,6.65 M9.92,9.23L0.71,9.16 M4.01,3.88l3.43,0.95l0.94-3.45 M9.92,9.23L5.37,1.17 M9.92,10.02L9.92,10.02
			c-0.42,2.27-3.04,3.19-3.04,5.55c0,1.59,1.42,2.99,3.03,2.99c1.62,0,3.03-1.39,3.03-2.99C12.96,13.21,10.34,12.29,9.92,10.02z"/>
	</g>
</g>
</symbol><symbol id="ionizer" viewBox="0 0 65 64">
<g clip-path="url(#clip0)">
<rect x="1.5" y="9" width="62" height="25" rx="4" stroke="black" stroke-width="2"/>
<path d="M6.5 24H58.5" stroke="black" stroke-width="2"/>
<path d="M11.5 29H53.5" stroke="black" stroke-width="2"/>
<path d="M17.5 40.0801C18.0523 40.0801 18.5 39.6324 18.5 39.0801C18.5 38.5278 18.0523 38.0801 17.5 38.0801C16.9477 38.0801 16.5 38.5278 16.5 39.0801C16.5 39.6324 16.9477 40.0801 17.5 40.0801Z" fill="black"/>
<path d="M12.2254 54.2053C12.7777 54.2053 13.2254 53.7576 13.2254 53.2053C13.2254 52.653 12.7777 52.2053 12.2254 52.2053C11.6731 52.2053 11.2254 52.653 11.2254 53.2053C11.2254 53.7576 11.6731 54.2053 12.2254 54.2053Z" fill="black"/>
<path d="M51.7521 53.2053C51.7521 53.7576 52.1998 54.2053 52.7521 54.2053C53.3044 54.2053 53.7521 53.7576 53.7521 53.2053C53.7521 52.653 53.3044 52.2053 52.7521 52.2053C52.1998 52.2053 51.7521 52.653 51.7521 53.2053Z" fill="black"/>
<path d="M9.23045 50.5601C9.78273 50.5601 10.2304 50.1123 10.2304 49.5601C10.2304 49.0078 9.78273 48.5601 9.23045 48.5601C8.67816 48.5601 8.23045 49.0078 8.23045 49.5601C8.23045 50.1123 8.67816 50.5601 9.23045 50.5601Z" fill="black"/>
<path d="M54.747 49.5601C54.747 50.1123 55.1948 50.5601 55.747 50.5601C56.2993 50.5601 56.747 50.1123 56.747 49.5601C56.747 49.0078 56.2993 48.5601 55.747 48.5601C55.1948 48.5601 54.747 49.0078 54.747 49.5601Z" fill="black"/>
<path d="M6.90604 46.4475C7.45832 46.4475 7.90604 45.9998 7.90604 45.4475C7.90604 44.8952 7.45832 44.4475 6.90604 44.4475C6.35375 44.4475 5.90604 44.8952 5.90604 45.4475C5.90604 45.9998 6.35375 46.4475 6.90604 46.4475Z" fill="black"/>
<path d="M57.0715 45.4475C57.0715 45.9998 57.5192 46.4475 58.0715 46.4475C58.6237 46.4475 59.0715 45.9998 59.0715 45.4475C59.0715 44.8952 58.6237 44.4475 58.0715 44.4475C57.5192 44.4475 57.0715 44.8952 57.0715 45.4475Z" fill="black"/>
<path d="M5.5 41.7058C6.05228 41.7058 6.5 41.2581 6.5 40.7058C6.5 40.1535 6.05228 39.7058 5.5 39.7058C4.94772 39.7058 4.5 40.1535 4.5 40.7058C4.5 41.2581 4.94772 41.7058 5.5 41.7058Z" fill="black"/>
<path d="M58.4775 40.7058C58.4775 41.2581 58.9252 41.7058 59.4775 41.7058C60.0298 41.7058 60.4775 41.2581 60.4775 40.7058C60.4775 40.1535 60.0298 39.7058 59.4775 39.7058C58.9252 39.7058 58.4775 40.1535 58.4775 40.7058Z" fill="black"/>
<path d="M47.4979 40.0801C46.9457 40.0801 46.4979 39.6324 46.4979 39.0801C46.4979 38.5278 46.9457 38.0801 47.4979 38.0801C48.0502 38.0801 48.4979 38.5278 48.4979 39.0801C48.4979 39.6324 48.0502 40.0801 47.4979 40.0801Z" fill="black"/>
<path d="M20.5 43.0801C20.5 43.6324 20.0523 44.0801 19.5 44.0801C18.9477 44.0801 18.5 43.6324 18.5 43.0801C18.5 42.5278 18.9477 42.0801 19.5 42.0801C20.0523 42.0801 20.5 42.5278 20.5 43.0801Z" fill="black"/>
<path d="M15.7899 57.356C16.3422 57.356 16.7899 56.9082 16.7899 56.356C16.7899 55.8037 16.3422 55.356 15.7899 55.356C15.2376 55.356 14.7899 55.8037 14.7899 56.356C14.7899 56.9082 15.2376 57.356 15.7899 57.356Z" fill="black"/>
<path d="M48.1876 56.356C48.1876 56.9082 48.6353 57.356 49.1876 57.356C49.7399 57.356 50.1876 56.9082 50.1876 56.356C50.1876 55.8037 49.7399 55.356 49.1876 55.356C48.6353 55.356 48.1876 55.8037 48.1876 56.356Z" fill="black"/>
<path d="M45.4979 44.0801C44.9457 44.0801 44.4979 43.6324 44.4979 43.0801C44.4979 42.5278 44.9457 42.0801 45.4979 42.0801C46.0502 42.0801 46.4979 42.5278 46.4979 43.0801C46.4979 43.6324 46.0502 44.0801 45.4979 44.0801Z" fill="black"/>
<path d="M23.1268 46.2222C23.1268 46.7745 22.6791 47.2222 22.1268 47.2222C21.5745 47.2222 21.1268 46.7745 21.1268 46.2222C21.1268 45.6699 21.5745 45.2222 22.1268 45.2222C22.6791 45.2222 23.1268 45.6699 23.1268 46.2222Z" fill="black"/>
<path d="M20.1268 59.9424C20.6791 59.9424 21.1268 59.4947 21.1268 58.9424C21.1268 58.3901 20.6791 57.9424 20.1268 57.9424C19.5745 57.9424 19.1268 58.3901 19.1268 58.9424C19.1268 59.4947 19.5745 59.9424 20.1268 59.9424Z" fill="black"/>
<path d="M43.8507 58.9424C43.8507 59.4947 44.2984 59.9424 44.8507 59.9424C45.403 59.9424 45.8507 59.4947 45.8507 58.9424C45.8507 58.3901 45.403 57.9424 44.8507 57.9424C44.2984 57.9424 43.8507 58.3901 43.8507 58.9424Z" fill="black"/>
<path d="M42.8712 47.2222C42.3189 47.2222 41.8712 46.7745 41.8712 46.2222C41.8712 45.6699 42.3189 45.2222 42.8712 45.2222C43.4235 45.2222 43.8712 45.6699 43.8712 46.2222C43.8712 46.7745 43.4235 47.2222 42.8712 47.2222Z" fill="black"/>
<path d="M26.5889 48.5601C26.5889 49.1123 26.1411 49.5601 25.5889 49.5601C25.0366 49.5601 24.5889 49.1123 24.5889 48.5601C24.5889 48.0078 25.0366 47.5601 25.5889 47.5601C26.1411 47.5601 26.5889 48.0078 26.5889 48.5601Z" fill="black"/>
<path d="M25.0078 61.9424C25.56 61.9424 26.0078 61.4947 26.0078 60.9424C26.0078 60.3901 25.56 59.9424 25.0078 59.9424C24.4555 59.9424 24.0078 60.3901 24.0078 60.9424C24.0078 61.4947 24.4555 61.9424 25.0078 61.9424Z" fill="black"/>
<path d="M38.9697 60.9424C38.9697 61.4947 39.4174 61.9424 39.9697 61.9424C40.522 61.9424 40.9697 61.4947 40.9697 60.9424C40.9697 60.3901 40.522 59.9424 39.9697 59.9424C39.4174 59.9424 38.9697 60.3901 38.9697 60.9424Z" fill="black"/>
<path d="M39.4091 49.5601C38.8568 49.5601 38.4091 49.1123 38.4091 48.5601C38.4091 48.0078 38.8568 47.5601 39.4091 47.5601C39.9614 47.5601 40.4091 48.0078 40.4091 48.5601C40.4091 49.1123 39.9614 49.5601 39.4091 49.5601Z" fill="black"/>
<path d="M30.9479 49.8733C30.9479 50.4256 30.5001 50.8733 29.9479 50.8733C29.3956 50.8733 28.9479 50.4256 28.9479 49.8733C28.9479 49.321 29.3956 48.8733 29.9479 48.8733C30.5001 48.8733 30.9479 49.321 30.9479 49.8733Z" fill="black"/>
<path d="M29.9479 62.9424C30.5001 62.9424 30.9479 62.4947 30.9479 61.9424C30.9479 61.3901 30.5001 60.9424 29.9479 60.9424C29.3956 60.9424 28.9479 61.3901 28.9479 61.9424C28.9479 62.4947 29.3956 62.9424 29.9479 62.9424Z" fill="black"/>
<path d="M34.0296 61.9424C34.0296 62.4947 34.4773 62.9424 35.0296 62.9424C35.5819 62.9424 36.0296 62.4947 36.0296 61.9424C36.0296 61.3901 35.5819 60.9424 35.0296 60.9424C34.4773 60.9424 34.0296 61.3901 34.0296 61.9424Z" fill="black"/>
<path d="M35.0296 50.8733C34.4773 50.8733 34.0296 50.4256 34.0296 49.8733C34.0296 49.321 34.4773 48.8733 35.0296 48.8733C35.5819 48.8733 36.0296 49.321 36.0296 49.8733C36.0296 50.4256 35.5819 50.8733 35.0296 50.8733Z" fill="black"/>
</g>

</symbol><symbol id="led-display" viewBox="0 0 19.84 19.84">
<style type="text/css">
	.st0{fill:none;stroke:#1D1D1B;stroke-width:0.5;stroke-miterlimit:10;}
</style>
<path class="st0" d="M11.08,10.37v5.82 M11.08,3.81v5.82 M18.88,10.37v5.82 M18.88,3.81v5.82 M11.74,3.54h6.27 M11.74,9.92h6.27
	 M11.74,16.3h6.27 M0.96,10.37v5.82 M0.96,3.81v5.82 M8.76,10.37v5.82 M8.76,3.81v5.82 M1.62,3.54h6.27 M1.62,9.92h6.27 M1.62,16.3
	h6.27"/>
</symbol><symbol id="local" viewBox="0 0 88 88">
<path d="M36.8145 27.2338C36.8145 33.133 32.0685 37.8789 26.1693 37.8789C20.2701 37.8789 15.5242 33.133 15.5242 27.2338C15.5242 21.3346 20.2701 16.5886 26.1693 16.5886C32.0685 16.5886 36.8145 21.3346 36.8145 27.2338Z" stroke="black" stroke-width="2" stroke-miterlimit="10"/>
<path d="M80.6372 7.40698H7.40735V80.6368H80.6372V7.40698Z" stroke="black" stroke-width="2" stroke-miterlimit="10"/>
</symbol><symbol id="no-interference" viewBox="0 0 89 88">
<path d="M4 44H85" stroke="black" stroke-width="2" stroke-miterlimit="10" stroke-linejoin="bevel"/>
</symbol><symbol id="restart" viewBox="0 0 88 88">
<path d="M43.9999 43.9997C54.9555 43.9997 63.8708 35.1288 63.8708 24.1288C63.8708 13.1288 54.9999 4.25781 43.9999 4.25781V43.9997ZM43.9999 43.9997C43.9999 33.0441 35.1289 24.1288 24.1289 24.1288C13.1733 24.1288 4.25793 33.0441 4.25793 43.9997H43.9999ZM43.9999 43.9997C33.0442 43.9997 24.1289 52.8707 24.1289 63.8707C24.1289 74.8707 33.0442 83.7417 43.9999 83.7417V43.9997ZM43.9999 43.9997C43.9999 54.9554 52.8708 63.8707 63.8708 63.8707C74.8708 63.8707 83.7418 54.9997 83.7418 43.9997H43.9999Z" stroke="black" stroke-width="2" stroke-miterlimit="10"/>
<path d="M69.9918 57.8833H56.3749V67.7301H69.9918V57.8833Z" fill="white"/>
<path d="M59.7902 76.7342L57.5725 83.8309H54.7337L61.9636 61.21H65.2459L72.4757 83.8309H69.5483L67.2862 76.7342H59.7902ZM66.7539 74.4721L64.6692 67.9519C64.1813 66.4882 63.8708 65.1132 63.5604 63.8269H63.516C63.2055 65.1132 62.895 66.5325 62.4515 67.9075L60.3668 74.4721H66.7539Z" fill="black"/>
</symbol><symbol id="seer" viewBox="0 0 151 58">
<path d="M37 38.9998L45.932 19.2598H48.004L56.936 38.9998H54.556L52.26 33.8198H41.592L39.268 38.9998H37ZM42.46 31.8318H51.392L46.94 21.8358L42.46 31.8318Z" fill="black"/>
<path d="M71 22H69V28H63V30H69V36H71V30H77V28H71V22Z" fill="black"/>
<path d="M91 22H89V28H83V30H89V36H91V30H97V28H91V22Z" fill="black"/>
<path fill-rule="evenodd" clip-rule="evenodd" d="M122.138 1H1.5625V57H122.138L149.172 29L122.138 1ZM122.562 0H0.5625V58H122.562L150.562 29L122.562 0Z" fill="black"/>
</symbol><symbol id="silent" viewBox="0 0 88 88">
<path d="M57.8388 57.1734L84.0968 30.8709M57.8388 30.8709L84.0968 57.1734L57.8388 30.8709ZM44.2662 44C44.2662 44 44.2662 13.5282 44.2662 13.3064C44.1775 12.6411 43.867 12.1532 43.246 11.8871C42.6694 11.6653 42.1371 11.7097 41.6049 12.1532C40.5404 13.0403 23.1533 27.8105 21.1573 29.4959C20.5363 30.0282 19.8267 30.2943 18.9396 30.2943C14.4154 30.25 9.89117 30.2943 5.36698 30.2943C5.1452 30.2943 4.96778 30.2943 4.74601 30.2943C4.56859 30.2943 4.43553 30.383 4.43553 30.6492C4.43553 30.8266 4.43553 31.0484 4.43553 31.2258C4.43553 36.1048 4.43553 53.4476 4.43553 55.2217C4.43553 56.375 4.34682 56.2419 5.45569 56.2419C10.0686 56.2419 14.6815 56.2419 19.2944 56.2419C20.0041 56.2419 20.625 56.4637 21.1129 56.9516C21.9557 57.75 41.3831 75.5363 41.871 76.0242C42.1371 76.2459 42.4033 76.2903 42.7138 76.2459C43.2904 76.1572 44.1331 75.5363 44.1775 74.7379C44.2662 74.4717 44.2662 44 44.2662 44Z" stroke="black" stroke-width="2" stroke-miterlimit="10"/>
</symbol><symbol id="slider-arrow" viewBox="0 0 14 25">
<path fill-rule="evenodd" clip-rule="evenodd" d="M12.3536 -3.09086e-08L13.0607 0.707107L1.41422 12.3536L13.0607 24L12.3536 24.7071L8.04308e-06 12.3536L12.3536 -3.09086e-08Z" fill="#00ADEB"/>
</symbol><symbol id="timer" viewBox="0 0 88 88">
<path d="M36.2378 48.6128C34.1975 44.7095 35.6612 39.9192 39.5644 37.8789C43.4676 35.8386 48.2579 37.3023 50.2983 41.2055C52.3386 45.1087 52.5604 62.4958 52.5604 62.4958C52.5604 62.4958 38.3225 52.4716 36.2378 48.6128ZM60.8991 73.2741L56.9071 66.3991L60.8991 73.2741ZM73.2741 60.8991L66.3991 56.9071L73.2741 60.8991ZM77.7983 43.9999H69.8587H77.7983ZM73.2741 27.1007L66.3991 31.0926L73.2741 27.1007ZM60.8991 14.7257L56.9071 21.6007L60.8991 14.7257ZM43.9999 10.2015V18.141V10.2015ZM83.7418 43.9999C83.7418 65.9555 65.9555 83.7418 43.9999 83.7418C22.0442 83.7418 4.25793 65.9555 4.25793 43.9999C4.25793 22.0442 22.0442 4.25793 43.9999 4.25793C65.9555 4.25793 83.7418 22.0442 83.7418 43.9999Z" stroke="black" stroke-width="2" stroke-miterlimit="10" stroke-linejoin="bevel"/>
</symbol><symbol id="turbo" viewBox="0 0 19.84 19.84">
<style type="text/css">
	.st0{fill:none;stroke:#000000;stroke-width:0.5;stroke-linecap:round;stroke-linejoin:bevel;stroke-miterlimit:10;}
</style>
<path class="st0" d="M16.05,6.54l2.62,2.64 M16.05,6.54l-2.62,2.64 M16.05,6.54v12.5 M3.8,6.54l2.62,2.64 M3.8,6.54L1.17,9.18
	 M3.8,6.54v12.5 M9.99,0.8l3.83,3.85 M9.99,0.8L6.16,4.64 M9.99,0.8v18.25"/>
</symbol><symbol id="vertical-swing" viewBox="0 0 89 88">
<path d="M16.8228 20.3587C27.1131 16.1007 28.6211 3.63696 28.6211 3.63696C28.6211 3.63696 33.4558 13.262 45.3873 15.4797M28.9316 4.43535C29.0647 14.0604 33.4558 24.3507 41.7502 32.2902C50.7542 40.9394 62.2421 44.8426 72.4881 43.8224C62.5 44.5 50.7986 47.0604 41.7945 55.7095C33.4558 63.6934 29.0647 73.9837 28.9316 83.6087M45.3873 72.52C33.4558 74.7378 28.6211 84.3628 28.6211 84.3628C28.6211 84.3628 27.1131 71.8991 16.8228 67.641" stroke="black" stroke-width="2" stroke-miterlimit="10" stroke-linejoin="bevel"/>
</symbol><symbol id="warm-start" viewBox="0 0 19.84 19.84">
<style type="text/css">
	.st0{fill:none;stroke:#000000;stroke-width:0.5;stroke-linejoin:bevel;stroke-miterlimit:10;}
</style>
<g>
	<g>
		<path class="st0" d="M19.13,5.83H3.22c-1.16,0-2.09,0.94-2.09,2.1s0.94,2.1,2.09,2.1h13.4c1.16,0,2.09,0.94,2.09,2.1
			s-0.94,2.1-2.09,2.1H0.71"/>
	</g>
	<g>
		<line class="st0" x1="5.15" y1="3.77" x2="5.15" y2="16.08"/>
	</g>
	<g>
		<line class="st0" x1="9.96" y1="3.77" x2="9.96" y2="16.08"/>
	</g>
	<g>
		<line class="st0" x1="14.77" y1="3.77" x2="14.77" y2="16.08"/>
	</g>
</g>
</symbol><symbol id="wifi-control" viewBox="0 0 19.84 19.84">
<style type="text/css">
	.st0{fill:none;stroke:#1D1D1B;stroke-width:0.5;stroke-miterlimit:10;}
</style>
<g>
	<path class="st0" d="M1.67,11.22c-0.44,0.51-0.71,1.18-0.71,1.91c0,0.81,0.33,1.55,0.86,2.08c0.53,0.53,1.27,0.86,2.08,0.86
		l11.13,0.01v0h0v0c0.81,0,1.55-0.33,2.08-0.86c0.53-0.53,0.86-1.26,0.86-2.07h0h0c0-0.75-0.29-1.44-0.75-1.96
		c-0.47-0.52-1.13-0.88-1.87-0.96c-0.07-0.01-0.14-0.05-0.17-0.13c-0.2-0.59-0.58-1.09-1.07-1.44c-0.48-0.34-1.07-0.55-1.71-0.55
		c-0.14,0-0.28,0.01-0.42,0.03c-0.14,0.02-0.28,0.05-0.41,0.09v0c-0.08,0.02-0.16,0-0.21-0.07c-0.39-0.55-0.92-1.01-1.53-1.33
		c-0.59-0.3-1.26-0.48-1.96-0.48c-1.08,0-2.07,0.4-2.82,1.06c-0.76,0.67-1.28,1.59-1.42,2.64c-0.01,0.09-0.07,0.16-0.16,0.18
		C2.75,10.34,2.12,10.7,1.67,11.22L1.67,11.22z M12.72,6.03c0.84-0.1,1.68,0.08,2.38,0.49c0.7,0.41,1.28,1.03,1.61,1.81 M12.14,3.85
		c1.44-0.25,2.88,0.04,4.07,0.73c1.2,0.69,2.16,1.79,2.67,3.16"/>
</g>
</symbol></svg>