<svg xmlns="http://www.w3.org/2000/svg" xmlns:xlink="http://www.w3.org/1999/xlink"><defs><style>.a{fill:#fff;fill-rule:evenodd;}</style></defs><symbol id="anti-mold" viewBox="0 0 89 88">
<path d="M15.891 39.1211C13.8507 29.4074 3.20557 26.0807 3.20557 26.0807C3.20557 26.0807 12.4314 23.4195 16.2902 13.3953" stroke="black" stroke-width="2" stroke-miterlimit="10" stroke-linejoin="bevel"/>
<path d="M5.5 26.2583H15.6251C28.1332 26.2583 38.2017 36.3268 38.2017 48.7906V75.0043M4.00415 59.8793H85.7058M4.00415 51.2744H85.7058" stroke="black" stroke-width="2" stroke-miterlimit="10" stroke-linejoin="round"/>
<path d="M72.7097 13.3508C76.5686 23.4194 85.7944 26.0363 85.7944 26.0363C85.7944 26.0363 75.1493 29.4073 73.1089 39.0766" stroke="black" stroke-width="2" stroke-miterlimit="10" stroke-linejoin="bevel"/>
<path d="M83.5 26.2583H73.3749C60.9112 26.2583 50.7982 36.3712 50.7982 48.8349V75.0486" stroke="black" stroke-width="2" stroke-miterlimit="10" stroke-linejoin="round"/>
</symbol><symbol id="comfort-sleep" viewBox="0 0 88 88">
<path d="M80.6369 44.0001C80.6369 41.3832 80.4152 38.7662 80.3708 36.1493C80.3264 33.7985 80.1047 31.492 80.5039 29.1412C80.8587 26.8791 81.7014 24.9275 82.5442 22.8428C82.9877 21.734 83.9635 19.4275 82.3224 18.8065C81.3466 18.4517 80.2377 18.984 79.3063 19.2945C78.4192 19.6049 77.4877 19.9154 76.6006 20.2703C74.649 21.0243 72.6531 21.3348 70.5684 21.4235C66.0885 21.6453 61.6531 20.6251 57.2176 20.2703C52.8264 19.8711 48.4353 19.5162 44.0442 19.2501C39.6087 19.4719 35.2176 19.8711 30.8264 20.2259C26.391 20.6251 21.9111 21.6009 17.4756 21.3791C15.391 21.3348 13.395 21.0243 11.4434 20.2703C10.5563 19.9154 9.66918 19.6049 8.73773 19.2945C7.80628 18.984 6.69741 18.4517 5.7216 18.8509C4.08047 19.4275 5.05628 21.734 5.45547 22.8428C6.29821 24.9275 7.18531 26.8791 7.54015 29.1412C7.89499 31.492 7.67321 33.7985 7.62886 36.1493C7.5845 38.7662 7.36273 41.3832 7.36273 44.0001C7.36273 46.617 7.5845 49.234 7.62886 51.8509C7.67321 54.2017 7.89499 56.5082 7.49579 58.859C7.14096 61.1211 6.29821 63.0727 5.45547 65.1574C5.01192 66.2662 4.03612 68.5727 5.67725 69.1936C6.65305 69.5485 7.76192 69.0162 8.69337 68.7057C9.58047 68.3953 10.5119 68.0848 11.399 67.7299C13.3506 66.9759 15.3466 66.6654 17.4313 66.5767C21.9111 66.3549 26.3466 67.3751 30.7821 67.7299C35.1732 68.1291 39.5643 68.484 43.9555 68.7501C48.3466 68.5283 52.7377 68.1291 57.1289 67.7299C61.5643 67.3307 66.0442 66.3549 70.4797 66.5767C72.5643 66.6654 74.5603 66.9759 76.5119 67.7299C77.399 68.0848 78.3305 68.3953 79.2176 68.7057C80.149 69.0162 81.2135 69.5485 82.2337 69.1936C83.8748 68.5727 82.899 66.2662 82.4555 65.1574C81.6127 63.0727 80.77 61.1211 80.4151 58.859C80.0603 56.5082 80.2377 54.2017 80.2821 51.8509C80.4152 49.234 80.6369 46.617 80.6369 44.0001Z" stroke="black" stroke-width="2" stroke-miterlimit="10" stroke-linecap="round" stroke-linejoin="round"/>
</symbol><symbol id="defrost" viewBox="0 0 88 88">
<path d="M70.5243 17.5642L55.2662 21.5561L51.2743 6.20937M44.0001 40.9392L64.6695 5.45534M44.0001 40.9392L84.8509 41.2053M44.0001 40.9392L3.14929 40.6287M44.0001 40.9392L23.8186 5.18921M77.3549 52.3384L66.2662 41.0279L77.488 29.8948M10.5122 51.8948L21.734 40.7618L10.6453 29.4957M17.7864 17.2094L33.0001 21.4231L37.1695 6.12066M44.0001 44.4432C42.1372 54.5118 30.5162 58.5924 30.5162 69.0602C30.5162 76.1126 36.8146 82.3223 43.9557 82.3223C51.1412 82.3223 57.3953 76.1569 57.3953 69.0602C57.484 58.5924 45.863 54.5118 44.0001 44.4432Z" stroke="black" stroke-width="2" stroke-miterlimit="10" stroke-linejoin="bevel"/>
</symbol><symbol id="diagnostic" viewBox="0 0 88 88">
<path d="M36.9475 53.3586L14.637 81.1247L10.9556 77.1328L32.4677 49.4553M77.3991 31.1368C77.3991 45.5521 65.6007 57.2174 51.008 57.2174C36.4152 57.2174 24.6169 45.5521 24.6169 31.1368C24.6169 16.7215 36.4152 5.05615 51.008 5.05615C65.6007 5.05615 77.3991 16.7215 77.3991 31.1368Z" stroke="#1D1D1B" stroke-width="2" stroke-miterlimit="10"/>
<path d="M69.8143 31.8911C69.8143 41.7379 61.7417 49.7218 51.7618 49.7218" stroke="#1D1D1B" stroke-width="2" stroke-miterlimit="10"/>
</symbol><symbol id="eco" viewBox="0 0 89 88">
<path d="M5.20156 84.8065C4.31447 71.2783 9.32656 56.3307 20.0604 44.2219C31.6814 31.0928 47.3387 24.3065 61.7983 24.6614M61.887 58.7702C35.8951 76.8227 8.66124 62.0969 8.66124 62.0969C8.66124 62.0969 4.49189 31.3146 30.4395 13.2178C56.4314 -4.83459 83.6209 9.89122 83.6209 9.89122C83.6209 9.89122 87.8346 40.6735 61.887 58.7702Z" stroke="black" stroke-width="2" stroke-miterlimit="10"/>
</symbol><symbol id="efficiency" viewBox="0 0 150 58">
<path d="M55.5315 38.9998L64.4635 19.2598H66.5355L75.4675 38.9998H73.0875L70.7915 33.8198H60.1235L57.7995 38.9998H55.5315ZM60.9915 31.8318H69.9235L65.4715 21.8358L60.9915 31.8318Z" fill="black"/>
<path fill-rule="evenodd" clip-rule="evenodd" d="M121.575 1H1V57H121.575L148.61 29L121.575 1ZM122 0H0V58H122L150 29L122 0Z" fill="black"/>
</symbol><symbol id="filter" viewBox="0 0 64 64">
<path d="M31 44H58M48.2581 32.0571H57.996M6 44H23M6.00409 32.0571H40.7218M6 20H16.5M24 20H58" stroke="black" stroke-width="2" stroke-miterlimit="10" stroke-linejoin="bevel"/>
<circle cx="27" cy="44" r="4" stroke="black" stroke-width="2"/>
<circle cx="20" cy="20" r="4" stroke="black" stroke-width="2"/>
<circle cx="44" cy="32" r="4" stroke="black" stroke-width="2"/>
</symbol><symbol id="flow" viewBox="0 0 64 64">
<rect x="1" y="9" width="62" height="25" rx="4" stroke="black" stroke-width="2"/>
<path d="M6 24H58" stroke="black" stroke-width="2"/>
<path d="M29 34.5V52" stroke="black" stroke-width="2"/>
<path d="M35 34.5V52" stroke="black" stroke-width="2"/>
<path d="M11 29H53" stroke="black" stroke-width="2"/>
<path d="M15 51V51.5C15 53.9853 17.0147 56 19.5 56V56C21.9853 56 24 53.9853 24 51.5V38" stroke="black" stroke-width="2"/>
<path d="M49 51V51.5C49 53.9853 46.9853 56 44.5 56V56C42.0147 56 40 53.9853 40 51.5V38" stroke="black" stroke-width="2"/>
</symbol><symbol id="icon_down_white" viewBox="0 0 25.018 13.509"><path class="a" d="M13,12.256,24.509.745l1,1L13,14.254.491,1.746l1-1Z" transform="translate(-0.491 -0.745)"/></symbol><symbol id="no-interference" viewBox="0 0 89 88">
<path d="M4 44H85" stroke="black" stroke-width="2" stroke-miterlimit="10" stroke-linejoin="bevel"/>
</symbol><symbol id="restart" viewBox="0 0 88 88">
<path d="M43.9999 43.9997C54.9555 43.9997 63.8708 35.1288 63.8708 24.1288C63.8708 13.1288 54.9999 4.25781 43.9999 4.25781V43.9997ZM43.9999 43.9997C43.9999 33.0441 35.1289 24.1288 24.1289 24.1288C13.1733 24.1288 4.25793 33.0441 4.25793 43.9997H43.9999ZM43.9999 43.9997C33.0442 43.9997 24.1289 52.8707 24.1289 63.8707C24.1289 74.8707 33.0442 83.7417 43.9999 83.7417V43.9997ZM43.9999 43.9997C43.9999 54.9554 52.8708 63.8707 63.8708 63.8707C74.8708 63.8707 83.7418 54.9997 83.7418 43.9997H43.9999Z" stroke="black" stroke-width="2" stroke-miterlimit="10"/>
<path d="M69.9918 57.8833H56.3749V67.7301H69.9918V57.8833Z" fill="white"/>
<path d="M59.7902 76.7342L57.5725 83.8309H54.7337L61.9636 61.21H65.2459L72.4757 83.8309H69.5483L67.2862 76.7342H59.7902ZM66.7539 74.4721L64.6692 67.9519C64.1813 66.4882 63.8708 65.1132 63.5604 63.8269H63.516C63.2055 65.1132 62.895 66.5325 62.4515 67.9075L60.3668 74.4721H66.7539Z" fill="black"/>
</symbol><symbol id="slider-arrow" viewBox="0 0 14 25">
<path fill-rule="evenodd" clip-rule="evenodd" d="M12.3536 -3.09086e-08L13.0607 0.707107L1.41422 12.3536L13.0607 24L12.3536 24.7071L8.04308e-06 12.3536L12.3536 -3.09086e-08Z" fill="#00ADEB"/>
</symbol><symbol id="timer" viewBox="0 0 88 88">
<path d="M36.2378 48.6128C34.1975 44.7095 35.6612 39.9192 39.5644 37.8789C43.4676 35.8386 48.2579 37.3023 50.2983 41.2055C52.3386 45.1087 52.5604 62.4958 52.5604 62.4958C52.5604 62.4958 38.3225 52.4716 36.2378 48.6128ZM60.8991 73.2741L56.9071 66.3991L60.8991 73.2741ZM73.2741 60.8991L66.3991 56.9071L73.2741 60.8991ZM77.7983 43.9999H69.8587H77.7983ZM73.2741 27.1007L66.3991 31.0926L73.2741 27.1007ZM60.8991 14.7257L56.9071 21.6007L60.8991 14.7257ZM43.9999 10.2015V18.141V10.2015ZM83.7418 43.9999C83.7418 65.9555 65.9555 83.7418 43.9999 83.7418C22.0442 83.7418 4.25793 65.9555 4.25793 43.9999C4.25793 22.0442 22.0442 4.25793 43.9999 4.25793C65.9555 4.25793 83.7418 22.0442 83.7418 43.9999Z" stroke="black" stroke-width="2" stroke-miterlimit="10" stroke-linejoin="bevel"/>
</symbol></svg>