<svg xmlns="http://www.w3.org/2000/svg" viewBox="0 0 19.84 19.84"><path d="M9.72 2.81V.71m4.98 1.33l-1.05 1.82M18 5.49l-1.82 1.05m2.95 3.58h-2.1m-7.31 9.01v-2.1M5.48 1.84l1.05 1.82M3.66 6.54L1.84 5.49m.97 4.63H.71m3.15 3.53L2.04 14.7m4.49 1.48L5.48 18m10.29-8.08c0-1.61-.66-3.08-1.71-4.13C13 4.73 11.53 4.08 9.92 4.08s-3.08.65-4.13 1.71C4.73 6.85 4.08 8.31 4.08 9.92s.65 3.08 1.71 4.13a5.82 5.82 0 004.13 1.71" fill="none" stroke="#000" stroke-width=".5" stroke-linejoin="bevel" stroke-miterlimit="10"/><path d="M12.26 17.26h3.43m-3.43-1.61h4.07c2.19 0 2.14-3.84 0-3.84h-2.94v7.32" fill="none" stroke="#000" stroke-width=".5" stroke-miterlimit="10"/></svg>