<svg width="88" height="88" viewBox="0 0 88 88" fill="none" xmlns="http://www.w3.org/2000/svg"><path d="M36.238 48.613c-2.04-3.904-.577-8.694 3.326-10.734 3.904-2.04 8.694-.577 10.734 3.327 2.04 3.903 2.262 21.29 2.262 21.29S38.322 52.472 36.238 48.613zm24.661 24.661L56.907 66.4l3.992 6.875zM73.274 60.9L66.4 56.907l6.875 3.992zM77.798 44h-7.94 7.94zm-4.524-16.898L66.4 31.093l6.875-3.992zM60.9 14.726L56.907 21.6l3.992-6.875zM44 10.2v7.94-7.94zM83.743 44c0 21.956-17.787 39.742-39.742 39.742C22.044 83.742 4.258 65.955 4.258 44 4.258 22.044 22.044 4.258 44 4.258c21.956 0 39.742 17.786 39.742 39.742z" stroke="#000" stroke-width="2" stroke-miterlimit="10" stroke-linejoin="bevel"/></svg>