<svg width="88" height="88" viewBox="0 0 88 88" fill="none" xmlns="http://www.w3.org/2000/svg">
<path d="M36.2378 48.6128C34.1975 44.7095 35.6612 39.9192 39.5644 37.8789C43.4676 35.8386 48.2579 37.3023 50.2983 41.2055C52.3386 45.1087 52.5604 62.4958 52.5604 62.4958C52.5604 62.4958 38.3225 52.4716 36.2378 48.6128ZM60.8991 73.2741L56.9071 66.3991L60.8991 73.2741ZM73.2741 60.8991L66.3991 56.9071L73.2741 60.8991ZM77.7983 43.9999H69.8587H77.7983ZM73.2741 27.1007L66.3991 31.0926L73.2741 27.1007ZM60.8991 14.7257L56.9071 21.6007L60.8991 14.7257ZM43.9999 10.2015V18.141V10.2015ZM83.7418 43.9999C83.7418 65.9555 65.9555 83.7418 43.9999 83.7418C22.0442 83.7418 4.25793 65.9555 4.25793 43.9999C4.25793 22.0442 22.0442 4.25793 43.9999 4.25793C65.9555 4.25793 83.7418 22.0442 83.7418 43.9999Z" stroke="black" stroke-width="2" stroke-miterlimit="10" stroke-linejoin="bevel"/>
</svg>
