<svg xmlns="http://www.w3.org/2000/svg" viewBox="0 0 19.84 19.84"><path d="M15.54 1.72l3.45 3.44m-3.45-3.44l-3.45 3.44m3.45-3.44c0 10.33-4.02 16.62-14.86 16.32" fill="none" stroke="#000" stroke-width=".5" stroke-linecap="round" stroke-linejoin="bevel" stroke-miterlimit="10"/><path d="M3.9 3.24h4.16c.07 0 .12.06.12.13 0 .02 0 .05-.01.06L6.64 6.39h1.92c.07 0 .12.06.12.13 0 .02-.01.05-.02.06l-3.49 6.78c-.03.06-.11.09-.16.05a.143.143 0 01-.06-.12V8.68H3.9c-.07 0-.12-.06-.12-.13V3.37c0-.07.05-.13.12-.13z" fill="none" stroke="#000" stroke-width=".5" stroke-miterlimit="10"/></svg>