<svg xmlns="http://www.w3.org/2000/svg" viewBox="0 0 19.84 19.84"><path d="M1.67 11.22a2.92 2.92 0 00-.71 1.91c0 .81.33 1.55.86 2.08s1.27.86 2.08.86l11.13.01v0h0v0c.81 0 1.55-.33 2.08-.86s.86-1.26.86-2.07h0c0-.75-.29-1.44-.75-1.96-.47-.52-1.13-.88-1.87-.96a.206.206 0 01-.17-.13c-.2-.59-.58-1.09-1.07-1.44a2.955 2.955 0 00-2.13-.52c-.14.02-.28.05-.41.09v0c-.08.02-.16 0-.21-.07-.39-.55-.92-1.01-1.53-1.33a4.258 4.258 0 00-4.78.58c-.76.67-1.28 1.59-1.42 2.64-.01.09-.07.16-.16.18-.72.11-1.35.47-1.8.99h0zm11.05-5.19c.84-.1 1.68.08 2.38.49s1.28 1.03 1.61 1.81m-4.57-4.48a6.06 6.06 0 014.07.73c1.2.69 2.16 1.79 2.67 3.16" fill="none" stroke="#1d1d1b" stroke-width=".5" stroke-miterlimit="10"/></svg>