<svg width="65" height="64" viewBox="0 0 65 64" fill="none" xmlns="http://www.w3.org/2000/svg">
<path d="M52.2904 15L41.1936 17.9032L38.2904 6.74194M33.0001 32L48.0323 6.19355M33.0001 32L62.7098 32.1935M33.0001 32L3.29041 31.7742M33.0001 32L18.3227 6M57.2582 40.2903L49.1936 32.0645L57.3549 23.9677M8.64524 39.9677L16.8065 31.871L8.74202 23.6774M13.9356 14.7419L25.0001 17.8064L28.0323 6.67742" stroke="black" stroke-width="2" stroke-miterlimit="10" stroke-linejoin="bevel"/>
<path d="M13.7097 49.0032L24.8065 46.1L27.7097 57.2612M17.9678 57.8096L33.0001 32.0032L47.6775 58.0032M52.0646 49.2612L41.0001 46.1967L37.9678 57.3258" stroke="black" stroke-width="2" stroke-miterlimit="10" stroke-linejoin="bevel"/>
</svg>
