<svg width="88" height="88" viewBox="0 0 88 88" fill="none" xmlns="http://www.w3.org/2000/svg">
<path d="M70.5243 17.5642L55.2662 21.5561L51.2743 6.20937M44.0001 40.9392L64.6695 5.45534M44.0001 40.9392L84.8509 41.2053M44.0001 40.9392L3.14929 40.6287M44.0001 40.9392L23.8186 5.18921M77.3549 52.3384L66.2662 41.0279L77.488 29.8948M10.5122 51.8948L21.734 40.7618L10.6453 29.4957M17.7864 17.2094L33.0001 21.4231L37.1695 6.12066M44.0001 44.4432C42.1372 54.5118 30.5162 58.5924 30.5162 69.0602C30.5162 76.1126 36.8146 82.3223 43.9557 82.3223C51.1412 82.3223 57.3953 76.1569 57.3953 69.0602C57.484 58.5924 45.863 54.5118 44.0001 44.4432Z" stroke="black" stroke-width="2" stroke-miterlimit="10" stroke-linejoin="bevel"/>
</svg>
