<svg width="65" height="64" viewBox="0 0 65 64" fill="none" xmlns="http://www.w3.org/2000/svg">
<g clip-path="url(#clip0)">
<rect x="1.5" y="9" width="62" height="25" rx="4" stroke="black" stroke-width="2"/>
<path d="M6.5 24H58.5" stroke="black" stroke-width="2"/>
<path d="M11.5 29H53.5" stroke="black" stroke-width="2"/>
<path d="M17.5 40.0801C18.0523 40.0801 18.5 39.6324 18.5 39.0801C18.5 38.5278 18.0523 38.0801 17.5 38.0801C16.9477 38.0801 16.5 38.5278 16.5 39.0801C16.5 39.6324 16.9477 40.0801 17.5 40.0801Z" fill="black"/>
<path d="M12.2254 54.2053C12.7777 54.2053 13.2254 53.7576 13.2254 53.2053C13.2254 52.653 12.7777 52.2053 12.2254 52.2053C11.6731 52.2053 11.2254 52.653 11.2254 53.2053C11.2254 53.7576 11.6731 54.2053 12.2254 54.2053Z" fill="black"/>
<path d="M51.7521 53.2053C51.7521 53.7576 52.1998 54.2053 52.7521 54.2053C53.3044 54.2053 53.7521 53.7576 53.7521 53.2053C53.7521 52.653 53.3044 52.2053 52.7521 52.2053C52.1998 52.2053 51.7521 52.653 51.7521 53.2053Z" fill="black"/>
<path d="M9.23045 50.5601C9.78273 50.5601 10.2304 50.1123 10.2304 49.5601C10.2304 49.0078 9.78273 48.5601 9.23045 48.5601C8.67816 48.5601 8.23045 49.0078 8.23045 49.5601C8.23045 50.1123 8.67816 50.5601 9.23045 50.5601Z" fill="black"/>
<path d="M54.747 49.5601C54.747 50.1123 55.1948 50.5601 55.747 50.5601C56.2993 50.5601 56.747 50.1123 56.747 49.5601C56.747 49.0078 56.2993 48.5601 55.747 48.5601C55.1948 48.5601 54.747 49.0078 54.747 49.5601Z" fill="black"/>
<path d="M6.90604 46.4475C7.45832 46.4475 7.90604 45.9998 7.90604 45.4475C7.90604 44.8952 7.45832 44.4475 6.90604 44.4475C6.35375 44.4475 5.90604 44.8952 5.90604 45.4475C5.90604 45.9998 6.35375 46.4475 6.90604 46.4475Z" fill="black"/>
<path d="M57.0715 45.4475C57.0715 45.9998 57.5192 46.4475 58.0715 46.4475C58.6237 46.4475 59.0715 45.9998 59.0715 45.4475C59.0715 44.8952 58.6237 44.4475 58.0715 44.4475C57.5192 44.4475 57.0715 44.8952 57.0715 45.4475Z" fill="black"/>
<path d="M5.5 41.7058C6.05228 41.7058 6.5 41.2581 6.5 40.7058C6.5 40.1535 6.05228 39.7058 5.5 39.7058C4.94772 39.7058 4.5 40.1535 4.5 40.7058C4.5 41.2581 4.94772 41.7058 5.5 41.7058Z" fill="black"/>
<path d="M58.4775 40.7058C58.4775 41.2581 58.9252 41.7058 59.4775 41.7058C60.0298 41.7058 60.4775 41.2581 60.4775 40.7058C60.4775 40.1535 60.0298 39.7058 59.4775 39.7058C58.9252 39.7058 58.4775 40.1535 58.4775 40.7058Z" fill="black"/>
<path d="M47.4979 40.0801C46.9457 40.0801 46.4979 39.6324 46.4979 39.0801C46.4979 38.5278 46.9457 38.0801 47.4979 38.0801C48.0502 38.0801 48.4979 38.5278 48.4979 39.0801C48.4979 39.6324 48.0502 40.0801 47.4979 40.0801Z" fill="black"/>
<path d="M20.5 43.0801C20.5 43.6324 20.0523 44.0801 19.5 44.0801C18.9477 44.0801 18.5 43.6324 18.5 43.0801C18.5 42.5278 18.9477 42.0801 19.5 42.0801C20.0523 42.0801 20.5 42.5278 20.5 43.0801Z" fill="black"/>
<path d="M15.7899 57.356C16.3422 57.356 16.7899 56.9082 16.7899 56.356C16.7899 55.8037 16.3422 55.356 15.7899 55.356C15.2376 55.356 14.7899 55.8037 14.7899 56.356C14.7899 56.9082 15.2376 57.356 15.7899 57.356Z" fill="black"/>
<path d="M48.1876 56.356C48.1876 56.9082 48.6353 57.356 49.1876 57.356C49.7399 57.356 50.1876 56.9082 50.1876 56.356C50.1876 55.8037 49.7399 55.356 49.1876 55.356C48.6353 55.356 48.1876 55.8037 48.1876 56.356Z" fill="black"/>
<path d="M45.4979 44.0801C44.9457 44.0801 44.4979 43.6324 44.4979 43.0801C44.4979 42.5278 44.9457 42.0801 45.4979 42.0801C46.0502 42.0801 46.4979 42.5278 46.4979 43.0801C46.4979 43.6324 46.0502 44.0801 45.4979 44.0801Z" fill="black"/>
<path d="M23.1268 46.2222C23.1268 46.7745 22.6791 47.2222 22.1268 47.2222C21.5745 47.2222 21.1268 46.7745 21.1268 46.2222C21.1268 45.6699 21.5745 45.2222 22.1268 45.2222C22.6791 45.2222 23.1268 45.6699 23.1268 46.2222Z" fill="black"/>
<path d="M20.1268 59.9424C20.6791 59.9424 21.1268 59.4947 21.1268 58.9424C21.1268 58.3901 20.6791 57.9424 20.1268 57.9424C19.5745 57.9424 19.1268 58.3901 19.1268 58.9424C19.1268 59.4947 19.5745 59.9424 20.1268 59.9424Z" fill="black"/>
<path d="M43.8507 58.9424C43.8507 59.4947 44.2984 59.9424 44.8507 59.9424C45.403 59.9424 45.8507 59.4947 45.8507 58.9424C45.8507 58.3901 45.403 57.9424 44.8507 57.9424C44.2984 57.9424 43.8507 58.3901 43.8507 58.9424Z" fill="black"/>
<path d="M42.8712 47.2222C42.3189 47.2222 41.8712 46.7745 41.8712 46.2222C41.8712 45.6699 42.3189 45.2222 42.8712 45.2222C43.4235 45.2222 43.8712 45.6699 43.8712 46.2222C43.8712 46.7745 43.4235 47.2222 42.8712 47.2222Z" fill="black"/>
<path d="M26.5889 48.5601C26.5889 49.1123 26.1411 49.5601 25.5889 49.5601C25.0366 49.5601 24.5889 49.1123 24.5889 48.5601C24.5889 48.0078 25.0366 47.5601 25.5889 47.5601C26.1411 47.5601 26.5889 48.0078 26.5889 48.5601Z" fill="black"/>
<path d="M25.0078 61.9424C25.56 61.9424 26.0078 61.4947 26.0078 60.9424C26.0078 60.3901 25.56 59.9424 25.0078 59.9424C24.4555 59.9424 24.0078 60.3901 24.0078 60.9424C24.0078 61.4947 24.4555 61.9424 25.0078 61.9424Z" fill="black"/>
<path d="M38.9697 60.9424C38.9697 61.4947 39.4174 61.9424 39.9697 61.9424C40.522 61.9424 40.9697 61.4947 40.9697 60.9424C40.9697 60.3901 40.522 59.9424 39.9697 59.9424C39.4174 59.9424 38.9697 60.3901 38.9697 60.9424Z" fill="black"/>
<path d="M39.4091 49.5601C38.8568 49.5601 38.4091 49.1123 38.4091 48.5601C38.4091 48.0078 38.8568 47.5601 39.4091 47.5601C39.9614 47.5601 40.4091 48.0078 40.4091 48.5601C40.4091 49.1123 39.9614 49.5601 39.4091 49.5601Z" fill="black"/>
<path d="M30.9479 49.8733C30.9479 50.4256 30.5001 50.8733 29.9479 50.8733C29.3956 50.8733 28.9479 50.4256 28.9479 49.8733C28.9479 49.321 29.3956 48.8733 29.9479 48.8733C30.5001 48.8733 30.9479 49.321 30.9479 49.8733Z" fill="black"/>
<path d="M29.9479 62.9424C30.5001 62.9424 30.9479 62.4947 30.9479 61.9424C30.9479 61.3901 30.5001 60.9424 29.9479 60.9424C29.3956 60.9424 28.9479 61.3901 28.9479 61.9424C28.9479 62.4947 29.3956 62.9424 29.9479 62.9424Z" fill="black"/>
<path d="M34.0296 61.9424C34.0296 62.4947 34.4773 62.9424 35.0296 62.9424C35.5819 62.9424 36.0296 62.4947 36.0296 61.9424C36.0296 61.3901 35.5819 60.9424 35.0296 60.9424C34.4773 60.9424 34.0296 61.3901 34.0296 61.9424Z" fill="black"/>
<path d="M35.0296 50.8733C34.4773 50.8733 34.0296 50.4256 34.0296 49.8733C34.0296 49.321 34.4773 48.8733 35.0296 48.8733C35.5819 48.8733 36.0296 49.321 36.0296 49.8733C36.0296 50.4256 35.5819 50.8733 35.0296 50.8733Z" fill="black"/>
</g>
<defs>
<clipPath id="clip0">
<rect x="0.5" width="64" height="64" fill="white"/>
</clipPath>
</defs>
</svg>
