<svg width="151" height="58" viewBox="0 0 151 58" fill="none" xmlns="http://www.w3.org/2000/svg">
<path d="M37 38.9998L45.932 19.2598H48.004L56.936 38.9998H54.556L52.26 33.8198H41.592L39.268 38.9998H37ZM42.46 31.8318H51.392L46.94 21.8358L42.46 31.8318Z" fill="black"/>
<path d="M71 22H69V28H63V30H69V36H71V30H77V28H71V22Z" fill="black"/>
<path d="M91 22H89V28H83V30H89V36H91V30H97V28H91V22Z" fill="black"/>
<path fill-rule="evenodd" clip-rule="evenodd" d="M122.138 1H1.5625V57H122.138L149.172 29L122.138 1ZM122.562 0H0.5625V58H122.562L150.562 29L122.562 0Z" fill="black"/>
</svg>
