<svg width="88" height="88" viewBox="0 0 88 88" fill="none" xmlns="http://www.w3.org/2000/svg">
<path d="M57.8388 57.1734L84.0968 30.8709M57.8388 30.8709L84.0968 57.1734L57.8388 30.8709ZM44.2662 44C44.2662 44 44.2662 13.5282 44.2662 13.3064C44.1775 12.6411 43.867 12.1532 43.246 11.8871C42.6694 11.6653 42.1371 11.7097 41.6049 12.1532C40.5404 13.0403 23.1533 27.8105 21.1573 29.4959C20.5363 30.0282 19.8267 30.2943 18.9396 30.2943C14.4154 30.25 9.89117 30.2943 5.36698 30.2943C5.1452 30.2943 4.96778 30.2943 4.74601 30.2943C4.56859 30.2943 4.43553 30.383 4.43553 30.6492C4.43553 30.8266 4.43553 31.0484 4.43553 31.2258C4.43553 36.1048 4.43553 53.4476 4.43553 55.2217C4.43553 56.375 4.34682 56.2419 5.45569 56.2419C10.0686 56.2419 14.6815 56.2419 19.2944 56.2419C20.0041 56.2419 20.625 56.4637 21.1129 56.9516C21.9557 57.75 41.3831 75.5363 41.871 76.0242C42.1371 76.2459 42.4033 76.2903 42.7138 76.2459C43.2904 76.1572 44.1331 75.5363 44.1775 74.7379C44.2662 74.4717 44.2662 44 44.2662 44Z" stroke="black" stroke-width="2" stroke-miterlimit="10"/>
</svg>
